:SAMPLES-PER-SECOND 30
:FULLY-SPECIFIED
:DEGREES
882
root  81.204 37.6355 2.11131 -158.874 -74.9876 156.122
RightUpLeg  18.1386 -23.2365 -17.5073
RightLeg  15.6722 -12.0428 -1.94329
RightFoot  -17.5732 0.793003 16.6556
RightToes  -4.65663e-010 0 -3.6325e-017
Spine  6.97758 2.89784 4.86834
Spine1  5.15956 5.8645 -11.1661
HEad  -7.22049 -32.7576 -6.54619
LeftShoulder1  -0.763454 5.40425 -33.9993
LeftArm  -6.17335 26.9643 -32.7546
LeftForeArm  33.06 -6.00906 -6.65473
LeftHand  -0.310594 15.2225 -2.89558
RightShoulder  -0.726232 -5.60599 27.8983
RightArm  23.9078 16.3715 52.797
RightForeArm  9.83938 28.8415 5.71652
RightHand  -0.212307 6.82664 -2.37243
LeftUpLeg  -20.0209 8.56618 -8.99525
LeftLeg  18.2906 5.74142 2.50264
LeftFoot  2.1777 -0.860377 7.11896
LeftToes  8.74931e-010 -1.05764e-010 1.2659e-011
883
root  80.1805 37.4865 2.12057 -154.811 -76.1813 150.736
RightUpLeg  19.3047 -24.9522 -20.3667
RightLeg  20.5581 -8.83757 -4.10403
RightFoot  -16.3617 0.845326 22.0236
RightToes  -4.65663e-010 0 -3.6325e-017
Spine  7.22759 2.93562 3.64934
Spine1  6.04694 5.84426 -11.2201
HEad  -7.04351 -33.9242 -6.01908
LeftShoulder1  -0.778263 5.42221 -34.3839
LeftArm  -6.56561 25.0113 -33.7382
LeftForeArm  37.3346 -5.09832 -6.49759
LeftHand  -0.355586 10.8539 -5.76033
RightShoulder  -0.762226 -5.69457 28.1567
RightArm  25.227 12.6586 52.4443
RightForeArm  9.26486 27.7692 5.45549
RightHand  -0.263181 6.06779 -2.99069
LeftUpLeg  -18.5424 6.94839 -9.97667
LeftLeg  21.2425 5.96627 2.90071
LeftFoot  -0.347136 -0.724935 7.55779
LeftToes  8.74931e-010 -1.05764e-010 1.2659e-011
884
root  79.2101 37.4646 2.17294 -152.054 -76.551 147.546
RightUpLeg  15.8748 -19.5211 -19.4456
RightLeg  29.0804 -10.9303 -6.76075
RightFoot  -12.1402 0.103359 23.707
RightToes  -4.65663e-010 0 -3.6325e-017
Spine  6.62799 3.29119 3.01381
Spine1  6.81881 6.16669 -11.7736
HEad  -6.19339 -33.9659 -5.77749
LeftShoulder1  -0.72259 5.29844 -34.0926
LeftArm  -6.83803 22.9652 -35.5225
LeftForeArm  38.6622 -4.91002 -6.66521
LeftHand  -0.252668 10.5756 -4.20879
RightShoulder  -0.78111 -5.72655 28.5118
RightArm  28.2534 9.56936 52.5771
RightForeArm  7.2925 23.692 4.95444
RightHand  -0.205955 5.93051 -2.43928
LeftUpLeg  -17.2551 5.80813 -10.8263
LeftLeg  22.8335 6.69641 3.42182
LeftFoot  -2.34273 -0.650126 8.41562
LeftToes  8.74931e-010 -1.05764e-010 1.2659e-011
885
root  78.256 37.622 2.19621 -149.005 -77.4347 144.303
RightUpLeg  10.7633 -14.144 -17.7596
RightLeg  39.1503 -10.0757 -8.91301
RightFoot  -2.86445 -1.07138 16.0177
RightToes  -4.65663e-010 0 -3.6325e-017
Spine  6.99041 3.18344 1.65736
Spine1  5.38534 5.56035 -10.6202
HEad  -4.7319 -33.7713 -5.73035
LeftShoulder1  -0.739029 5.33579 -34.1657
LeftArm  -6.34124 21.365 -36.7301
LeftForeArm  38.7703 -6.15099 -7.17064
LeftHand  -0.163965 8.74143 -3.81784
RightShoulder  -0.806778 -5.77964 28.8297
RightArm  29.6465 7.24701 52.8845
RightForeArm  8.28072 17.4622 6.23373
RightHand  -0.158191 6.08813 -1.93766
LeftUpLeg  -15.0439 5.47549 -11.3131
LeftLeg  22.136 6.17496 3.0987
LeftFoot  -3.76731 -0.538357 8.44462
LeftToes  8.74931e-010 -1.05764e-010 1.2659e-011
886
root  77.3794 37.7635 2.15493 -145.557 -78.3604 140.561
RightUpLeg  5.73263 -9.30454 -16.1643
RightLeg  47.5056 -5.22426 -6.23796
RightFoot  6.06384 -1.06032 6.66089
RightToes  -4.65663e-010 0 -3.6325e-017
Spine  6.81415 2.99918 -0.171164
Spine1  5.54773 4.84214 -8.97972
HEad  -4.49678 -33.2222 -5.33501
LeftShoulder1  -0.720655 5.28366 -34.3127
LeftArm  -4.88811 18.7306 -38.0434
LeftForeArm  35.8192 -8.03778 -7.95664
LeftHand  -0.096902 9.02396 -1.28193
RightShoulder  -0.818726 -5.80527 28.9596
RightArm  24.495 5.78572 53.1267
RightForeArm  16.8916 11.0531 9.02541
RightHand  -0.213848 5.37959 -2.52536
LeftUpLeg  -12.7853 4.99791 -11.5293
LeftLeg  21.4167 5.65629 2.77624
LeftFoot  -5.14791 -0.397092 7.90871
LeftToes  8.74931e-010 -1.05764e-010 1.2659e-011
887
root  76.6525 37.7757 2.0929 -139.403 -79.9319 133.908
RightUpLeg  1.64569 -5.7899 -14.831
RightLeg  53.6735 2.27886 2.905
RightFoot  2.74078 -1.07288 8.84484
RightToes  -4.65663e-010 0 -3.6325e-017
Spine  7.70314 2.47307 -2.2807
Spine1  5.46168 3.54441 -7.2199
HEad  -4.88752 -32.5514 -5.10688
LeftShoulder1  -0.724566 5.28491 -34.501
LeftArm  -1.62527 14.6206 -39.2689
LeftForeArm  31.6084 -9.53958 -8.77758
LeftHand  0.0448651 9.89609 2.2906
RightShoulder  -0.796991 -5.73686 29.0606
RightArm  19.5189 3.5566 52.9988
RightForeArm  26.5109 7.04704 9.41514
RightHand  -0.0224505 3.00923 -0.642498
LeftUpLeg  -11.2031 3.19477 -11.6281
LeftLeg  22.0342 5.62106 2.8054
LeftFoot  -6.63426 -0.281264 7.80627
LeftToes  8.74931e-010 -1.05764e-010 1.2659e-011
888
root  75.8855 37.8192 1.97465 -135 -81.2394 129.709
RightUpLeg  -3.19335 -2.92757 -13.1226
RightLeg  58.2751 5.48311 8.948
RightFoot  0.530021 -1.21209 11.6773
RightToes  -4.65663e-010 0 -3.6325e-017
Spine  6.84564 2.15405 -3.69973
Spine1  6.85816 2.73627 -6.06143
HEad  -5.83944 -32.5924 -3.7996
LeftShoulder1  -0.680088 5.18914 -34.1792
LeftArm  3.12134 9.57085 -40.8589
LeftForeArm  28.5291 -11.8746 -8.95717
LeftHand  0.0540945 12.4379 1.93324
RightShoulder  -0.851234 -5.86956 29.3781
RightArm  17.7214 1.19616 52.4356
RightForeArm  29.0666 5.26689 9.19677
RightHand  -0.101266 1.64024 -1.81008
LeftUpLeg  -10.2256 1.97655 -11.2142
LeftLeg  22.5098 5.23831 2.611
LeftFoot  -8.01591 -0.175195 7.67941
LeftToes  8.74931e-010 -1.05764e-010 1.2659e-011
889
root  75.0341 37.8973 1.8314 -136.056 -81.2628 130.418
RightUpLeg  -7.58537 1.07516 -11.7561
RightLeg  60.3785 4.51122 8.04723
RightFoot  -0.892009 -1.27586 13.7768
RightToes  -4.65663e-010 0 -3.6325e-017
Spine  6.76613 2.44229 -5.34369
Spine1  7.35903 2.51429 -4.82124
HEad  -6.28746 -32.2203 -3.41887
LeftShoulder1  -0.610516 5.0199 -34.1031
LeftArm  7.67323 5.08775 -41.864
LeftForeArm  26.3222 -14.2364 -8.37042
LeftHand  -0.0579255 10.5117 0.0357275
RightShoulder  -0.855911 -5.86748 29.6053
RightArm  16.6707 -2.04319 51.0658
RightForeArm  28.5878 5.46628 8.68039
RightHand  -0.0551419 2.87129 -0.999498
LeftUpLeg  -8.0926 2.36332 -10.8294
LeftLeg  22.037 5.11828 2.36444
LeftFoot  -9.45731 -0.0678456 7.61457
LeftToes  8.74931e-010 -1.05764e-010 1.2659e-011
890
root  74.2584 38.0322 1.75822 -128.083 -83.324 122.525
RightUpLeg  -11.6114 1.68751 -10.4815
RightLeg  59.7815 2.52627 4.25389
RightFoot  -1.82844 -0.988443 11.6825
RightToes  -4.65663e-010 0 -3.6325e-017
Spine  7.80269 1.44289 -6.38084
Spine1  5.76012 0.938298 -2.67678
HEad  -6.51443 -31.6229 -3.40993
LeftShoulder1  -0.644894 5.10414 -34.1164
LeftArm  10.6538 1.06145 -42.4467
LeftForeArm  23.5373 -15.9987 -7.5805
LeftHand  -0.0329501 7.96649 0.487408
RightShoulder  -0.862546 -5.88243 29.6623
RightArm  16.7907 -5.12231 49.3009
RightForeArm  26.2294 6.65471 8.4624
RightHand  -0.0226214 3.55267 -0.537401
LeftUpLeg  -6.22192 1.75108 -9.94648
LeftLeg  21.0141 3.69512 1.83324
LeftFoot  -10.4732 0.00371113 7.72809
LeftToes  8.74931e-010 -1.05764e-010 1.2659e-011
891
root  73.421 38.1741 1.69199 -123.004 -84.2995 117.212
RightUpLeg  -14.6902 2.97841 -9.82261
RightLeg  56.4299 0.226753 -0.0367741
RightFoot  -3.50131 -0.746242 10.5143
RightToes  -4.65663e-010 0 -3.6325e-017
Spine  8.62637 0.886595 -6.93257
Spine1  4.94504 0.142382 -1.65637
HEad  -6.58273 -31.266 -2.56636
LeftShoulder1  -0.598398 5.01509 -33.4766
LeftArm  14.2621 -2.48087 -43.4506
LeftForeArm  18.8706 -18.5731 -6.21544
LeftHand  -0.0201033 8.88479 0.898423
RightShoulder  -0.905964 -5.99378 29.7753
RightArm  18.0521 -7.71786 47.5912
RightForeArm  24.5111 8.64032 8.21701
RightHand  -0.0149049 2.8683 -0.433369
LeftUpLeg  -3.9383 2.18331 -9.22732
LeftLeg  20.0189 2.16769 1.23702
LeftFoot  -11.2987 0.0661732 7.64008
LeftToes  8.74931e-010 -1.05764e-010 1.2659e-011
892
root  72.5886 38.2662 1.65807 -118.963 -85.0428 113.211
RightUpLeg  -17.2388 3.87787 -9.50069
RightLeg  50.4394 -1.55376 -2.36232
RightFoot  -4.51619 -0.610553 9.71464
RightToes  -4.65663e-010 0 -3.6325e-017
Spine  9.71552 0.201447 -6.53294
Spine1  3.49233 -0.409167 -1.87991
HEad  -5.35261 -30.9533 -0.93093
LeftShoulder1  -0.715071 5.36008 -32.3558
LeftArm  17.0146 -5.83246 -44.2929
LeftForeArm  14.129 -20.767 -5.09683
LeftHand  0.054949 9.03832 3.02154
RightShoulder  -1.00774 -6.23847 30.2852
RightArm  20.4849 -9.81402 45.7827
RightForeArm  22.1677 10.9247 7.94126
RightHand  -0.0507027 2.71201 -0.931439
LeftUpLeg  -2.09716 2.55001 -8.60727
LeftLeg  19.125 1.05324 0.90185
LeftFoot  -12.0037 0.12051 8.41119
LeftToes  8.74931e-010 -1.05764e-010 1.2659e-011
893
root  71.7566 38.3449 1.65629 -108.759 -85.8825 102.823
RightUpLeg  -18.2433 3.78221 -9.31001
RightLeg  41.6234 -2.38292 -2.58018
RightFoot  -4.33362 -0.611966 9.48923
RightToes  -4.65663e-010 0 -3.6325e-017
Spine  8.66658 -0.587846 -6.46805
Spine1  5.93518 -1.23944 -0.897008
HEad  -7.44277 -29.9576 0.373638
LeftShoulder1  -0.77029 5.5273 -31.9023
LeftArm  16.9016 -10.6778 -45.6177
LeftForeArm  14.6331 -21.8054 -4.57803
LeftHand  -0.0307226 7.68121 0.678726
RightShoulder  -0.846664 -5.88277 28.9835
RightArm  19.8456 -10.3612 46.1689
RightForeArm  20.6739 11.5281 7.5388
RightHand  -0.0975779 2.94344 -1.57938
LeftUpLeg  0.0749551 2.71856 -8.04069
LeftLeg  18.0495 0.0048887 0.701944
LeftFoot  -12.8716 0.186021 8.13819
LeftToes  8.74931e-010 -1.05764e-010 1.2659e-011
894
root  70.8469 38.3437 1.63923 -102.095 -86.1359 96.2711
RightUpLeg  -18.6781 2.81555 -9.33095
RightLeg  31.0689 -1.57672 -1.23925
RightFoot  -4.30338 -0.638324 9.88305
RightToes  -4.65663e-010 0 -3.6325e-017
Spine  7.45444 -0.990746 -6.42002
Spine1  7.63356 -1.59879 -0.450794
HEad  -9.28289 -28.5196 1.62496
LeftShoulder1  -0.635446 5.19775 -31.3562
LeftArm  15.4246 -14.1165 -46.696
LeftForeArm  15.2544 -22.5135 -4.31629
LeftHand  0.00362857 7.62227 2.13743
RightShoulder  -0.683085 -5.47717 27.9263
RightArm  18.3606 -11.0738 46.2358
RightForeArm  20.4009 11.7205 7.11346
RightHand  -0.0707779 3.03454 -1.29449
LeftUpLeg  1.88198 3.36144 -7.59707
LeftLeg  17.4009 -0.821497 0.418715
LeftFoot  -14.1184 0.27915 7.97175
LeftToes  8.74931e-010 -1.05764e-010 1.2659e-011
